<?xml version="1.0" encoding="utf-8"?>
<!-- Generator: Adobe Illustrator 18.0.0, SVG Export Plug-In . SVG Version: 6.00 Build 0)  -->
<!DOCTYPE svg PUBLIC "-//W3C//DTD SVG 1.1//EN" "http://www.w3.org/Graphics/SVG/1.1/DTD/svg11.dtd">
<svg version="1.1" id="Capa_1" xmlns="http://www.w3.org/2000/svg" xmlns:xlink="http://www.w3.org/1999/xlink" x="0px" y="0px"
	 viewBox="0 0 425.2 425.2" enable-background="new 0 0 425.2 425.2" xml:space="preserve">
<g>
	<circle fill="#CE1069" cx="212.6" cy="212.6" r="182.3"/>
	<g>
		<path fill="#FFFFFF" d="M236.9,278.3c0,13.4-10.9,24.3-24.3,24.3c-13.4,0-24.3-10.9-24.3-24.3V146.9c0-13.4,10.9-24.3,24.3-24.3
			c13.4,0,24.3,10.9,24.3,24.3v29.3h19.6v-29.3c0-24.1-19.7-43.8-43.8-43.8h0c-24.1,0-43.8,19.7-43.8,43.8v131.5
			c0,24.1,19.7,43.8,43.8,43.8h0c24.1,0,43.8-19.7,43.8-43.8v-29.1h-19.6V278.3z"/>
		<path fill="#FFFFFF" d="M265.9,203h-32.7c-5.3,0-9.6,4.3-9.6,9.6c0,5.3,4.3,9.6,9.6,9.6h32.7c5.3,0,9.6-4.3,9.6-9.6
			C275.6,207.4,271.2,203,265.9,203z"/>
	</g>
</g>
</svg>
